<svg width="22" height="16" viewBox="0 0 22 16" fill="none" xmlns="http://www.w3.org/2000/svg">
<path d="M1.74223 4.20114C0.763657 5.94954 0.524563 7.97461 1.06902 9.90285C1.61338 11.8311 2.87631 13.432 4.62471 14.4106C6.95657 15.7155 9.83269 15.6764 12.1309 14.3082C12.8565 13.8762 13.5022 13.3226 14.0421 12.6766L19.9313 15.9725L21.2881 13.5481L15.3998 10.2528C15.8803 8.83194 15.9238 7.30099 15.5074 5.82625C14.963 3.89801 13.7001 2.29723 11.9516 1.31856C9.61986 0.0135771 6.74364 0.0527906 4.44554 1.42091C3.31989 2.09104 2.38506 3.05239 1.74223 4.20114ZM10.5948 3.74298C11.6957 4.35908 12.4909 5.36712 12.8337 6.5812C13.1765 7.79529 13.0259 9.07028 12.4098 10.1712C12.0048 10.8948 11.4169 11.4999 10.7097 11.9209C9.26173 12.7829 7.45001 12.8079 5.98159 11.9861C4.8807 11.37 4.08561 10.3621 3.74286 9.14784C3.40006 7.93375 3.55064 6.65876 4.16668 5.55777C4.57161 4.83429 5.15955 4.22922 5.86676 3.8082C7.31479 2.94615 9.12641 2.9212 10.5948 3.74298Z" fill="black"/>
</svg>
