<svg width="73" height="73" viewBox="0 0 73 73" fill="none" xmlns="http://www.w3.org/2000/svg">
<rect x="2" y="2" width="69" height="69" rx="8" stroke="black" stroke-width="4"/>
<path d="M20.2674 27.9594C18.2454 31.572 17.7514 35.7563 18.8764 39.7406C20.0012 43.7249 22.6107 47.0327 26.2233 49.0547C31.0415 51.751 36.9843 51.6701 41.7329 48.8431C43.2323 47.9505 44.5664 46.8067 45.6819 45.4718L57.8506 52.2821L60.6541 47.2726L48.4874 40.4636C49.4802 37.5278 49.57 34.3645 48.7097 31.3173C47.5847 27.3331 44.9753 24.0255 41.3625 22.0033C36.5445 19.3069 30.6016 19.3879 25.8531 22.2148C23.5272 23.5994 21.5957 25.5858 20.2674 27.9594ZM38.5591 27.0127C40.8338 28.2858 42.4768 30.3686 43.1851 32.8772C43.8934 35.3858 43.5822 38.0203 42.3092 40.295C41.4725 41.7902 40.2576 43.0404 38.7963 43.9103C35.8045 45.6914 32.0611 45.7431 29.027 44.0451C26.7523 42.7721 25.1094 40.6894 24.4012 38.1805C23.6929 35.6719 24.004 33.0375 25.2769 30.7625C26.1136 29.2677 27.3284 28.0174 28.7897 27.1475C31.7817 25.3663 35.525 25.3147 38.5591 27.0127Z" fill="black"/>
</svg>
